# Icosahedron (20-sided polyhedron)
# 12 vertices, 20 triangular faces

v  0.000  1.618  1.000
v  0.000  1.618 -1.000
v  0.000 -1.618  1.000
v  0.000 -1.618 -1.000
v  1.618  1.000  0.000
v  1.618 -1.000  0.000
v -1.618  1.000  0.000
v -1.618 -1.000  0.000
v  1.000  0.000  1.618
v -1.000  0.000  1.618
v  1.000  0.000 -1.618
v -1.000  0.000 -1.618

# 20 faces
f 1 2 5
f 1 5 9
f 1 9 10
f 1 10 7
f 1 7 2
f 2 7 12
f 2 12 11
f 2 11 5
f 3 4 8
f 3 8 10
f 3 10 9
f 3 9 6
f 3 6 4
f 4 6 11
f 4 11 12
f 4 12 8
f 5 11 6
f 5 6 9
f 7 10 8
f 7 8 12
