# Simplified Teacup
# A low-poly teacup inspired by the Utah teapot

# Cup body - bottom ring
v -0.8 -0.5  0.0
v -0.566 -0.5 -0.566
v  0.0 -0.5 -0.8
v  0.566 -0.5 -0.566
v  0.8 -0.5  0.0
v  0.566 -0.5  0.566
v  0.0 -0.5  0.8
v -0.566 -0.5  0.566

# Cup body - middle ring (wider)
v -1.0  0.0  0.0
v -0.707  0.0 -0.707
v  0.0  0.0 -1.0
v  0.707  0.0 -0.707
v  1.0  0.0  0.0
v  0.707  0.0  0.707
v  0.0  0.0  1.0
v -0.707  0.0  0.707

# Cup body - top ring (rim)
v -0.9  0.5  0.0
v -0.636  0.5 -0.636
v  0.0  0.5 -0.9
v  0.636  0.5 -0.636
v  0.9  0.5  0.0
v  0.636  0.5  0.636
v  0.0  0.5  0.9
v -0.636  0.5  0.636

# Cup bottom center
v  0.0 -0.5  0.0

# Handle points
v  1.3  0.3  0.0
v  1.5  0.0  0.0
v  1.3 -0.3  0.0

# Bottom faces (to center)
f 25 1 2
f 25 2 3
f 25 3 4
f 25 4 5
f 25 5 6
f 25 6 7
f 25 7 8
f 25 8 1

# Lower body
f 1 9 10
f 1 10 2
f 2 10 11
f 2 11 3
f 3 11 12
f 3 12 4
f 4 12 13
f 4 13 5
f 5 13 14
f 5 14 6
f 6 14 15
f 6 15 7
f 7 15 16
f 7 16 8
f 8 16 9
f 8 9 1

# Upper body
f 9 17 18
f 9 18 10
f 10 18 19
f 10 19 11
f 11 19 20
f 11 20 12
f 12 20 21
f 12 21 13
f 13 21 22
f 13 22 14
f 14 22 23
f 14 23 15
f 15 23 24
f 15 24 16
f 16 24 17
f 16 17 9

# Handle
f 21 26 27
f 21 27 13
f 13 27 28
f 13 28 5
